<svg width="17" height="17" viewBox="0 0 17 17" fill="none" xmlns="http://www.w3.org/2000/svg">
<g clip-path="url(#clip0_38_117)">
<path d="M16.2142 8.68969C16.2142 8.03194 16.1608 7.55196 16.0453 7.0542H8.53442V10.023H12.9431C12.8543 10.7607 12.3743 11.8718 11.3077 12.6184L11.2927 12.7178L13.6675 14.5576L13.832 14.574C15.3431 13.1784 16.2142 11.1252 16.2142 8.68969Z" fill="#4285F4"/>
<path d="M8.53441 16.5118C10.6943 16.5118 12.5076 15.8007 13.832 14.5741L11.3076 12.6186C10.6321 13.0897 9.72546 13.4185 8.53441 13.4185C6.41893 13.4185 4.62345 12.0231 3.9834 10.0942L3.88959 10.1022L1.42023 12.0133L1.38794 12.103C2.70344 14.7163 5.40559 16.5118 8.53441 16.5118Z" fill="#34A853"/>
<path d="M3.98342 10.0942C3.81454 9.59646 3.7168 9.0631 3.7168 8.51203C3.7168 7.9609 3.81454 7.4276 3.97453 6.92985L3.97006 6.82384L1.46976 4.88208L1.38796 4.92099C0.845773 6.00542 0.534668 7.22318 0.534668 8.51203C0.534668 9.80088 0.845773 11.0186 1.38796 12.103L3.98342 10.0942Z" fill="#FBBC05"/>
<path d="M8.53442 3.60543C10.0366 3.60543 11.0499 4.2543 11.6276 4.79654L13.8853 2.59215C12.4988 1.3033 10.6943 0.512207 8.53442 0.512207C5.40559 0.512207 2.70344 2.3077 1.38794 4.92093L3.97452 6.92979C4.62345 5.00096 6.41894 3.60543 8.53442 3.60543Z" fill="#EB4335"/>
</g>
<defs>
<clipPath id="clip0_38_117">
<rect width="15.687" height="16.0547" fill="white" transform="translate(0.534668 0.512207)"/>
</clipPath>
</defs>
</svg>
