<svg width="30" height="31" viewBox="0 0 30 31" fill="none" xmlns="http://www.w3.org/2000/svg">
<path d="M21.3515 25.7796C20.1387 26.9553 18.8145 26.7696 17.5399 26.2127C16.1909 25.6435 14.9534 25.6187 13.5302 26.2127C11.7481 26.98 10.8076 26.7573 9.74331 25.7796C3.70408 19.5547 4.59512 10.0751 11.4511 9.72861C13.1218 9.81524 14.2851 10.6444 15.2628 10.7186C16.7231 10.4216 18.1215 9.56773 19.6808 9.6791C21.5495 9.82761 22.9603 10.5701 23.8885 11.9067C20.0273 14.2209 20.9431 19.3072 24.4825 20.7304C23.7771 22.5867 22.8613 24.4307 21.3391 25.792L21.3515 25.7796ZM15.139 9.65435C14.9534 6.89462 17.1934 4.61753 19.7675 4.39478C20.1263 7.58765 16.8716 9.96374 15.139 9.65435Z" fill="black"/>
</svg>
