<svg width="23" height="23" viewBox="0 0 23 23" fill="none" xmlns="http://www.w3.org/2000/svg">
<g clip-path="url(#clip0_38_122)">
<path d="M22.7084 11.5395C22.7084 5.33285 17.6768 0.30127 11.4701 0.30127C5.2634 0.30127 0.231812 5.33277 0.231812 11.5395C0.231812 17.1488 4.34151 21.7982 9.7141 22.6413V14.7881H6.86064V11.5395H9.7141V9.06361C9.7141 6.24702 11.3919 4.69122 13.9589 4.69122C15.1885 4.69122 16.4746 4.91072 16.4746 4.91072V7.67639H15.0576C13.6614 7.67639 13.2261 8.5427 13.2261 9.43149V11.5395H16.3429L15.8447 14.7881H13.2261V22.6413C18.5987 21.7982 22.7084 17.1489 22.7084 11.5395Z" fill="#1877F2"/>
<path d="M15.8446 14.788L16.3429 11.5395H13.226V9.43143C13.226 8.54255 13.6614 7.67633 15.0575 7.67633H16.4746V4.91066C16.4746 4.91066 15.1885 4.69116 13.9589 4.69116C11.3919 4.69116 9.71406 6.24696 9.71406 9.06355V11.5395H6.8606V14.788H9.71406V22.6412C10.295 22.7323 10.8821 22.7779 11.47 22.7778C12.058 22.7779 12.6451 22.7323 13.226 22.6412V14.788H15.8446Z" fill="white"/>
</g>
<defs>
<clipPath id="clip0_38_122">
<rect width="22.4765" height="22.4765" fill="white" transform="translate(0.231812 0.30127)"/>
</clipPath>
</defs>
</svg>
