<svg width="30" height="30" viewBox="0 0 30 30" fill="none" xmlns="http://www.w3.org/2000/svg">
<g clip-path="url(#clip0_177_221)">
<path d="M25 17.5C25.4816 17.5002 25.9445 17.6857 26.293 18.018C26.6415 18.3503 26.8488 18.8039 26.872 19.2849C26.8951 19.7659 26.7323 20.2373 26.4173 20.6015C26.1024 20.9657 25.6593 21.1948 25.18 21.2413L25 21.25H9.5263L11.3263 23.05C11.6673 23.3897 11.8645 23.8476 11.8772 24.3287C11.8899 24.8099 11.7171 25.2775 11.3946 25.6347C11.072 25.992 10.6244 26.2115 10.1445 26.2479C9.66452 26.2842 9.18898 26.1346 8.8163 25.83L8.6738 25.7013L3.88755 20.9138C2.67005 19.6963 3.46255 17.6425 5.1263 17.5075L5.3013 17.5H25ZM18.675 4.30001C19.003 3.97176 19.441 3.77677 19.9044 3.75276C20.3678 3.72875 20.8237 3.87741 21.1838 4.17001L21.3263 4.29876L26.1125 9.08626C27.33 10.3038 26.5375 12.3575 24.8738 12.4925L24.6988 12.5H5.00005C4.51853 12.4998 4.05556 12.3143 3.70707 11.982C3.35858 11.6497 3.15129 11.1961 3.12814 10.7151C3.105 10.2342 3.26779 9.76272 3.58277 9.39851C3.89775 9.0343 4.34078 8.80522 4.82005 8.75876L5.00005 8.75001H20.4738L18.6738 6.95001C18.3227 6.59845 18.1254 6.12189 18.1254 5.62501C18.1254 5.12813 18.3239 4.65157 18.675 4.30001Z" fill="#545454"/>
</g>
<defs>
<clipPath id="clip0_177_221">
<rect width="30" height="30" fill="white"/>
</clipPath>
</defs>
</svg>
